<?xml version="1.0" encoding="utf-8"?>
<!-- Generator: Adobe Illustrator 24.2.1, SVG Export Plug-In . SVG Version: 6.00 Build 0)  -->
<svg version="1.1" id="Calque_1" xmlns="http://www.w3.org/2000/svg" xmlns:xlink="http://www.w3.org/1999/xlink" x="0px" y="0px"
	 viewBox="0 0 18 18" style="enable-background:new 0 0 18 18;" xml:space="preserve">
<style type="text/css">
	.st0{fill:#FF7900;}
	.st1{fill:#FFFFFF;}
</style>
<g>
	<polygon class="st0" points="16.2,8.41 9,12.57 1.8,16.73 1.8,8.41 1.8,0.09 9,4.25 	"/>
	<path class="st1" d="M13.9,16.12l-1.45-1.45c0.45-0.64,0.71-1.41,0.71-2.25c0-2.16-1.75-3.92-3.92-3.92s-3.92,1.75-3.92,3.92
		s1.75,3.92,3.92,3.92c0.56,0,1.1-0.12,1.59-0.34c0.01,0.01,0.02,0.02,0.03,0.03l1.57,1.57c0.2,0.2,0.47,0.31,0.74,0.31
		c0.27,0,0.53-0.1,0.74-0.31C14.31,17.19,14.31,16.53,13.9,16.12z M6.69,12.42c0-1.41,1.14-2.55,2.55-2.55
		c1.41,0,2.55,1.14,2.55,2.55c0,1.41-1.14,2.55-2.55,2.55C7.83,14.97,6.69,13.83,6.69,12.42z"/>
</g>
</svg>
