<svg id="Calque_1" data-name="Calque 1" xmlns="http://www.w3.org/2000/svg" viewBox="0 0 80 80"><defs><style>.cls-1{fill:#323256;}.cls-2{fill:#00adff;}.cls-3{fill:#f05245;}.cls-4{fill:#1cebcf;}.cls-5{fill:#ffe300;}</style></defs><rect class="cls-1" width="80" height="80"/><path class="cls-2" d="M59.06,20.84a27,27,0,0,0-16.57-7.79.79.79,0,0,0-.62,1.35l9.71,9.71c.05.05,0,.16-.1.1a18.72,18.72,0,0,0-9.25-3.48.54.54,0,0,0-.41.94l6.59,6.59c.05.06,0,.16-.1.11a12.85,12.85,0,0,0-6-2.18.36.36,0,0,0-.31.62L53.24,38.08a.36.36,0,0,0,.62-.31,12.74,12.74,0,0,0-2.18-6s.06-.15.11-.1l6.38,6.44a.55.55,0,0,0,.94-.42,18.63,18.63,0,0,0-3.48-9.24c-.05-.05,0-.16.1-.1L65.44,38a.8.8,0,0,0,1.35-.63,26.47,26.47,0,0,0-7.73-16.56"/><path class="cls-3" d="M21,20.84a27,27,0,0,1,16.57-7.79.79.79,0,0,1,.62,1.35l-9.66,9.71c-.05.05,0,.16.11.1a18.65,18.65,0,0,1,9.24-3.48.55.55,0,0,1,.42.94l-6.65,6.65c-.05.05,0,.15.1.1a12.85,12.85,0,0,1,6-2.18.36.36,0,0,1,.31.62L26.81,38.13a.36.36,0,0,1-.62-.31,12.78,12.78,0,0,1,2.18-6c.05-.06-.05-.16-.11-.11l-6.38,6.39a.55.55,0,0,1-.94-.42,18.73,18.73,0,0,1,3.48-9.24c0-.05-.05-.16-.1-.1L14.56,38a.8.8,0,0,1-1.35-.63A26.85,26.85,0,0,1,21,20.84"/><path class="cls-4" d="M21,59.16A27,27,0,0,0,37.56,67a.79.79,0,0,0,.62-1.35l-9.66-9.71c-.05,0,0-.16.11-.1a18.65,18.65,0,0,0,9.24,3.48.55.55,0,0,0,.42-.94l-6.65-6.65c-.05,0,0-.15.1-.1a12.85,12.85,0,0,0,6,2.18.36.36,0,0,0,.31-.62L26.81,41.87a.36.36,0,0,0-.62.31,12.78,12.78,0,0,0,2.18,6c.05.06-.05.16-.11.11l-6.38-6.39a.55.55,0,0,0-.94.42,18.55,18.55,0,0,0,3.48,9.24c0,.05-.05.16-.1.1L14.61,42a.8.8,0,0,0-1.35.63A26.52,26.52,0,0,0,21,59.16"/><path class="cls-5" d="M59.06,59.16A27,27,0,0,1,42.49,67a.79.79,0,0,1-.62-1.35l9.71-9.71c.05,0,0-.16-.1-.1a18.72,18.72,0,0,1-9.25,3.48.54.54,0,0,1-.41-.94l6.59-6.59c.05-.06,0-.16-.1-.11a12.85,12.85,0,0,1-6,2.18.36.36,0,0,1-.31-.62L53.24,41.92a.36.36,0,0,1,.62.31,12.74,12.74,0,0,1-2.18,6c0,.05.06.15.11.1l6.38-6.44a.55.55,0,0,1,.94.42,18.46,18.46,0,0,1-3.48,9.24c-.05.05,0,.16.1.1L65.44,42a.8.8,0,0,1,1.35.63,26.47,26.47,0,0,1-7.73,16.56"/></svg>